<svg id="Layer_1" data-name="Layer 1" xmlns="http://www.w3.org/2000/svg" viewBox="0 0 300 300"><path d="M77.07,274.2a10.75,10.75,0,0,1-5.92-1.78l-9.21-6.08a10.78,10.78,0,0,1-3.06-14.92l66-100.09L91.12,129a7.71,7.71,0,0,1-2.76,1.17,7.5,7.5,0,0,1-5.69-1.09l-1.77-1.17a7.53,7.53,0,0,1-3.25-4.8,7.77,7.77,0,0,1,0-3l-4.24-2.8a7.63,7.63,0,0,1-2.76,1.17A7.52,7.52,0,0,1,65,117.42l-1.77-1.17a7.48,7.48,0,0,1-3.24-4.8,7.57,7.57,0,0,1,1.1-5.69L111.55,29.2A7.56,7.56,0,0,1,122,27.05l1.77,1.17A7.58,7.58,0,0,1,127.06,36l4.24,2.8a7.68,7.68,0,0,1,2.77-1.17,7.55,7.55,0,0,1,5.68,1.1l1.77,1.17a7.57,7.57,0,0,1,3.25,7.79L180.12,71a10.75,10.75,0,0,1,10,1l9.21,6.07a10.76,10.76,0,0,1,4.84,8.85l35.35,23.32a7.6,7.6,0,0,1,8.46-.07l1.75,1.15a7.56,7.56,0,0,1,3.25,4.79,7.68,7.68,0,0,1,0,3l4.24,2.8a7.55,7.55,0,0,1,8.43-.09l1.8,1.19a7.56,7.56,0,0,1,2.14,10.46l-50.52,76.58a7.57,7.57,0,0,1-10.47,2.16l-1.79-1.18a7.54,7.54,0,0,1-3.25-7.8l-4.24-2.8a7.6,7.6,0,0,1-8.46.08l-1.75-1.16a7.59,7.59,0,0,1-3.26-7.8l-33.8-22.3-66,100.09A10.8,10.8,0,0,1,77.07,274.2ZM89.65,117.28l47.73,31.49-71,107.6a1.78,1.78,0,0,0,.51,2.46l9.21,6.08a1.78,1.78,0,0,0,2.46-.51l71-107.6L215,200l43.75-66.3L194,90.94l1.16-3.31a1.75,1.75,0,0,0-.71-2l-9.21-6.08a1.75,1.75,0,0,0-2.15.16L180.46,82,115.67,39.29l-43.74,66.3Zm172.49,11.25h0Z"/></svg>